<?xml version="1.0" encoding="UTF-8"?><svg xmlns="http://www.w3.org/2000/svg" width="1984" height="2118" viewBox="0 0 1984 2118" shape-rendering="geometricPrecision" text-rendering="geometricPrecision"><path d="M 949.831 94.750 C 949.189 95.440, 937.306 96.415, 923.425 96.916 C 875.038 98.666, 817.228 111.775, 756.447 134.780 C 735.048 142.879, 677.680 173.972, 653.414 190.623 C 623.934 210.851, 561.318 268.307, 542.345 292.539 C 505.329 339.815, 488.093 365.876, 470.101 401.773 C 441.228 459.380, 427.996 501.786, 414.175 581 C 408.609 612.902, 407.859 711.574, 413.143 716.857 C 417.918 721.632, 634.082 721.632, 638.857 716.857 C 641.452 714.262, 642.069 707.373, 642.397 677.357 C 642.949 626.714, 643.036 624.366, 644.818 612 C 649.264 581.145, 663.229 537.624, 678.511 507 C 688.087 487.811, 720.220 442, 724.104 442 C 725.133 442, 728.625 438.342, 731.863 433.871 C 739.949 422.709, 766.093 399.458, 783 388.392 C 850.377 344.295, 915.898 327.699, 997.599 334.038 C 1038.428 337.206, 1065.718 344.938, 1112 366.452 C 1133.362 376.382, 1139.973 380.771, 1166 402.295 C 1205.918 435.306, 1233.068 468.966, 1251.888 508.775 C 1269.242 545.483, 1277.323 570.923, 1285.026 613.102 L 1290.158 641.205 1289.523 899.102 L 1288.888 1157 1284.265 1171 C 1281.723 1178.700, 1277.391 1192.200, 1274.638 1201 C 1267.666 1223.290, 1249.744 1261.283, 1238.580 1277.442 C 1227.933 1292.852, 1186.500 1335.181, 1170 1347.505 C 1138.308 1371.175, 1086.806 1392.010, 1038 1400.905 C 1015.222 1405.056, 819.785 1405.560, 816.396 1401.477 C 814.514 1399.210, 812.452 1297.479, 812.102 1189.643 C 812.018 1163.898, 811.437 1157.723, 808.857 1155.143 C 804.724 1151.010, 580.507 1150.293, 576.400 1154.400 C 574.560 1156.240, 574 1213.147, 574 1398.362 L 574 1639.924 578.500 1641.035 C 588.874 1643.597, 1050.681 1640.867, 1065 1638.159 C 1117.848 1628.165, 1149.062 1619.565, 1184 1605.372 C 1280.114 1566.327, 1372.291 1492.702, 1432.999 1406.487 C 1453.627 1377.193, 1483.902 1316.566, 1495.664 1281 C 1517.661 1214.487, 1525.252 1162.222, 1523.260 1091 C 1522.553 1065.700, 1521.942 949.699, 1521.902 833.221 C 1521.832 624.876, 1521.423 609.705, 1514.888 573 C 1510.858 550.360, 1501.107 510.347, 1491.495 477 C 1478.055 430.378, 1440.516 358.993, 1409.922 321.881 C 1405.788 316.866, 1400.557 309.724, 1398.298 306.010 C 1396.040 302.296, 1384.865 289.299, 1373.465 277.129 C 1362.065 264.958, 1350.997 252.876, 1348.869 250.280 C 1343.835 244.139, 1306.354 212.075, 1287.756 198 C 1248.125 168.005, 1228.518 157.252, 1158 126.830 C 1142.332 120.070, 1118.468 113.188, 1093 108.084 C 1080.900 105.659, 1064.444 102.330, 1056.432 100.686 C 1040.924 97.504, 1035.589 97.077, 984 94.894 C 965.850 94.125, 950.474 94.061, 949.831 94.750 M 200.400 826.400 C 196.904 829.896, 196.904 2020.104, 200.400 2023.600 C 204.177 2027.377, 1211.733 2026.855, 1238 2023.063 C 1268.512 2018.658, 1295.760 2012.524, 1333 2001.677 C 1374.890 1989.475, 1456.044 1950.311, 1496 1923.015 C 1550.525 1885.766, 1600.925 1839.925, 1640 1792.039 C 1658.325 1769.582, 1671.104 1751.404, 1703.491 1701.723 C 1712.865 1687.343, 1737.163 1631.053, 1754.739 1583 C 1760.577 1567.038, 1765.518 1547.852, 1777.083 1496.244 C 1788.931 1443.366, 1788.804 1343.799, 1776.822 1292 C 1775.168 1284.850, 1771.931 1270.900, 1769.629 1261 C 1760.113 1220.086, 1750.481 1191.045, 1733.475 1152 C 1711.904 1102.475, 1693.007 1070, 1685.761 1070 C 1683.692 1070, 1681.979 1070.675, 1681.954 1071.500 C 1681.929 1072.325, 1681.461 1093.250, 1680.915 1118 C 1678.011 1249.559, 1658.001 1349.642, 1614.214 1451.613 C 1579.096 1533.394, 1547.223 1580.936, 1487.110 1641.201 C 1414.885 1713.609, 1361.473 1750.540, 1273.927 1788.600 C 1184.830 1827.334, 1115.614 1842.177, 995 1848.412 C 935.629 1851.482, 414.274 1852.717, 410.755 1849.797 C 406.943 1846.633, 406.590 998.210, 410.400 994.400 C 412.249 992.551, 494.198 992, 767.090 992 C 1107.780 992, 1121.507 991.860, 1124.690 988.343 C 1129.591 982.927, 1129.748 832.034, 1124.857 827.143 C 1122.018 824.304, 1077.279 824, 662.257 824 C 307.568 824, 202.253 824.547, 200.400 826.400" stroke="none" fill="#63ff00" fill-rule="evenodd"/><path d="M 949.831 94.750 C 949.189 95.440, 937.306 96.415, 923.425 96.916 C 875.038 98.666, 817.228 111.775, 756.447 134.780 C 735.048 142.879, 677.680 173.972, 653.414 190.623 C 623.934 210.851, 561.318 268.307, 542.345 292.539 C 505.329 339.815, 488.093 365.876, 470.101 401.773 C 441.228 459.380, 427.996 501.786, 414.175 581 C 408.609 612.902, 407.859 711.574, 413.143 716.857 C 417.918 721.632, 634.082 721.632, 638.857 716.857 C 641.452 714.262, 642.069 707.373, 642.397 677.357 C 642.949 626.714, 643.036 624.366, 644.818 612 C 649.264 581.145, 663.229 537.624, 678.511 507 C 688.087 487.811, 720.220 442, 724.104 442 C 725.133 442, 728.625 438.342, 731.863 433.871 C 739.949 422.709, 766.093 399.458, 783 388.392 C 850.377 344.295, 915.898 327.699, 997.599 334.038 C 1038.428 337.206, 1065.718 344.938, 1112 366.452 C 1133.362 376.382, 1139.973 380.771, 1166 402.295 C 1205.918 435.306, 1233.068 468.966, 1251.888 508.775 C 1269.242 545.483, 1277.323 570.923, 1285.026 613.102 L 1290.158 641.205 1289.523 899.102 L 1288.888 1157 1284.265 1171 C 1281.723 1178.700, 1277.391 1192.200, 1274.638 1201 C 1267.666 1223.290, 1249.744 1261.283, 1238.580 1277.442 C 1227.933 1292.852, 1186.500 1335.181, 1170 1347.505 C 1138.308 1371.175, 1086.806 1392.010, 1038 1400.905 C 1015.222 1405.056, 819.785 1405.560, 816.396 1401.477 C 814.514 1399.210, 812.452 1297.479, 812.102 1189.643 C 812.018 1163.898, 811.437 1157.723, 808.857 1155.143 C 804.724 1151.010, 580.507 1150.293, 576.400 1154.400 C 574.560 1156.240, 574 1213.147, 574 1398.362 L 574 1639.924 578.500 1641.035 C 588.874 1643.597, 1050.681 1640.867, 1065 1638.159 C 1117.848 1628.165, 1149.062 1619.565, 1184 1605.372 C 1280.114 1566.327, 1372.291 1492.702, 1432.999 1406.487 C 1453.627 1377.193, 1483.902 1316.566, 1495.664 1281 C 1517.661 1214.487, 1525.252 1162.222, 1523.260 1091 C 1522.553 1065.700, 1521.942 949.699, 1521.902 833.221 C 1521.832 624.876, 1521.423 609.705, 1514.888 573 C 1510.858 550.360, 1501.107 510.347, 1491.495 477 C 1478.055 430.378, 1440.516 358.993, 1409.922 321.881 C 1405.788 316.866, 1400.557 309.724, 1398.298 306.010 C 1396.040 302.296, 1384.865 289.299, 1373.465 277.129 C 1362.065 264.958, 1350.997 252.876, 1348.869 250.280 C 1343.835 244.139, 1306.354 212.075, 1287.756 198 C 1248.125 168.005, 1228.518 157.252, 1158 126.830 C 1142.332 120.070, 1118.468 113.188, 1093 108.084 C 1080.900 105.659, 1064.444 102.330, 1056.432 100.686 C 1040.924 97.504, 1035.589 97.077, 984 94.894 C 965.850 94.125, 950.474 94.061, 949.831 94.750 M 200.400 826.400 C 196.904 829.896, 196.904 2020.104, 200.400 2023.600 C 204.177 2027.377, 1211.733 2026.855, 1238 2023.063 C 1268.512 2018.658, 1295.760 2012.524, 1333 2001.677 C 1374.890 1989.475, 1456.044 1950.311, 1496 1923.015 C 1550.525 1885.766, 1600.925 1839.925, 1640 1792.039 C 1658.325 1769.582, 1671.104 1751.404, 1703.491 1701.723 C 1712.865 1687.343, 1737.163 1631.053, 1754.739 1583 C 1760.577 1567.038, 1765.518 1547.852, 1777.083 1496.244 C 1788.931 1443.366, 1788.804 1343.799, 1776.822 1292 C 1775.168 1284.850, 1771.931 1270.900, 1769.629 1261 C 1760.113 1220.086, 1750.481 1191.045, 1733.475 1152 C 1711.904 1102.475, 1693.007 1070, 1685.761 1070 C 1683.692 1070, 1681.979 1070.675, 1681.954 1071.500 C 1681.929 1072.325, 1681.461 1093.250, 1680.915 1118 C 1678.011 1249.559, 1658.001 1349.642, 1614.214 1451.613 C 1579.096 1533.394, 1547.223 1580.936, 1487.110 1641.201 C 1414.885 1713.609, 1361.473 1750.540, 1273.927 1788.600 C 1184.830 1827.334, 1115.614 1842.177, 995 1848.412 C 935.629 1851.482, 414.274 1852.717, 410.755 1849.797 C 406.943 1846.633, 406.590 998.210, 410.400 994.400 C 412.249 992.551, 494.198 992, 767.090 992 C 1107.780 992, 1121.507 991.860, 1124.690 988.343 C 1129.591 982.927, 1129.748 832.034, 1124.857 827.143 C 1122.018 824.304, 1077.279 824, 662.257 824 C 307.568 824, 202.253 824.547, 200.400 826.400" stroke="none" fill="#a3ff00" fill-rule="evenodd"/></svg>